HIERARCHY
ROOT pelvis
{
  OFFSET 0 100 0
  CHANNELS 6 Xposition Yposition Zposition Zrotation Xrotation Yrotation
  JOINT pelvis_right_femur
  {
    OFFSET -10.78128 -3.44521 -0.5502486
    CHANNELS 3 Zrotation Xrotation Yrotation
    JOINT right_femur_tibia
    {
      OFFSET -0.8047443 -44.0398 -0.1307829
      CHANNELS 3 Zrotation Xrotation Yrotation
      JOINT right_tibia_foot
      {
        OFFSET 3.006224 -47.83518 -5
        CHANNELS 3 Zrotation Xrotation Yrotation
        End Site
        {
          OFFSET 0 -5 15
        }
      }
    }
  }
  JOINT pelvis_left_femur
  {
    OFFSET 10.78128 -3.44521 -0.5502486
    CHANNELS 3 Zrotation Xrotation Yrotation
    JOINT left_femur_tibia
    {
      OFFSET 0.8047443 -44.0398 -0.1307829
      CHANNELS 3 Zrotation Xrotation Yrotation
      JOINT left_tibia_foot
      {
        OFFSET -4.370144 -48.10324 -4.275266
        CHANNELS 3 Zrotation Xrotation Yrotation
        End Site
        {
          OFFSET 0 -5 15
        }
      }
    }
  }
  JOINT pelvis_spine1
  {
    OFFSET 0 6.468898 -3.129235
    CHANNELS 3 Zrotation Xrotation Yrotation
    JOINT spine1
    {
      OFFSET 0 23.15396 4.99043
      CHANNELS 3 Zrotation Xrotation Yrotation
      JOINT spine2
      {
        OFFSET 0 20.79997 -5.064912
        CHANNELS 3 Zrotation Xrotation Yrotation
        JOINT neck
        {
          OFFSET 0 14.38658 9.616178
          CHANNELS 3 Zrotation Xrotation Yrotation
          End Site
          {
            OFFSET 0 20 0
          }
        }
      }
      JOINT right_manubrium
      {
        OFFSET -5.722621 16.35077 3.967754
        CHANNELS 3 Zrotation Xrotation Yrotation
        JOINT right_clavicle
        {
          OFFSET -13.16364 1.694482 -4.693211
          CHANNELS 3 Zrotation Xrotation Yrotation
          JOINT right_humerus
          {
            OFFSET -28.5034 -0.3100689 -2.792744
            CHANNELS 3 Zrotation Xrotation Yrotation
            JOINT right_radius
            {
              OFFSET -25.15693 0.02248979 -1.271978
              CHANNELS 3 Zrotation Xrotation Yrotation
              End Site
              {
                OFFSET -15 0 0
              }
            }
          }
        }
      }
      JOINT left_manubrium
      {
        OFFSET 5.722621 16.35077 3.967754
        CHANNELS 3 Zrotation Xrotation Yrotation
        JOINT left_clavicle
        {
          OFFSET 13.16364 1.694482 -4.693211
          CHANNELS 3 Zrotation Xrotation Yrotation
          JOINT left_humerus
          {
            OFFSET 29.39168 -1.063119 -2.237045
            CHANNELS 3 Zrotation Xrotation Yrotation
            JOINT left_radius
            {
              OFFSET 24.59957 -0.9528479 0.9047498
              CHANNELS 3 Zrotation Xrotation Yrotation
              End Site
              {
                OFFSET 15 -0 -0
              }
            }
          }
        }
      }
    }
  }
}
MOTION
Frames: 15
Frame Time: 0.0416666666667
1888.141 98.66481 1050.473 2.920239 2.059332 116.0948 2.35378 22.21519 0.6871806 -0 12.95965 -0 -5.65016 -14.71627 1.681572 0.4413575 -26.86775 -5.417109 -0 10.76993 -0 -2.746492 -6.387383 21.07376 -2.075799 -0.2908156 7.017807 -0.3166812 8.088775 -2.996147 1.2472 22.85804 5.06229 2.621614 -20.13087 6.016786 0.02312861 -21.87663 9.77632 79.74135 28.67824 -3.020709 -0 0 21.12722 -21.69533 6.120739 15.33238 5.607649 -15.29395 -0.2759602 -94.40673 21.97121 25.2544 0 0 -4.41069 3.488905 7.981666 8.385184
1894.047 97.87641 1046.401 3.041883 2.873607 115.7809 0.9597442 22.84478 1.219027 -0 20.54943 -0 -5.20497 -9.598826 1.808006 -1.50738 -24.7676 -6.782155 -0 12.4942 -0 -2.407509 -6.695349 21.107 -2.738621 -0.9894615 7.332948 -0.6604026 8.516861 -2.80096 1.450386 22.68791 5.118289 3.012361 -20.05627 5.967166 0.06305738 -21.62617 9.670096 80.65828 27.49171 -3.970359 -0 0 20.98552 -22.17512 5.458601 15.23324 5.469309 -15.14844 -0.6077656 -94.47423 21.71714 25.70187 0 0 -3.798421 3.072703 7.278195 9.13651
1900.136 97.84138 1042.155 3.540075 3.914157 115.7961 -0.2439425 21.55472 1.90886 -0 30.42772 -0 -4.973394 -3.042361 1.52401 -3.48991 -21.50865 -7.974854 -0 15.93368 -0 -2.204044 -7.507436 20.74852 -3.366421 -1.420385 7.472251 -1.055742 9.313388 -2.764028 1.643844 22.50309 5.11962 3.393348 -19.9315 5.832975 0.2526646 -21.29817 9.769679 82.24231 26.03532 -5.688814 -0 0 20.55967 -22.33081 4.8958 14.76432 5.217058 -15.36489 -1.288259 -94.32049 21.67781 25.93086 0 0 -3.864609 2.558035 6.47112 10.16479
1906.171 98.60782 1037.921 4.277058 4.862568 116.2526 -0.9273711 18.25755 2.52764 -0 41.36968 -0 -5.02726 3.603124 0.884392 -5.081442 -17.14095 -8.817468 -0 19.24996 -0 -2.091301 -8.677758 19.99429 -3.787805 -1.555989 7.21092 -1.344836 10.3206 -3.047175 1.704815 22.3345 5.099109 3.612723 -19.89721 5.65075 0.5414591 -21.00091 10.06423 84.2677 24.63245 -7.915604 -0 0 19.87059 -22.05404 4.465887 14.10821 4.808255 -15.92439 -2.194144 -93.87798 21.9724 25.83417 0 0 -4.617248 1.999856 5.732525 11.31708
1911.865 100.0259 1033.911 5.074556 5.470749 117.1588 -0.9626791 13.32989 2.953915 -0 51.4375 -0 -5.395355 8.607588 -0.0200255 -6.043878 -11.81221 -9.382294 -0 20.93807 -0 -2.013766 -9.974208 19.00632 -3.887689 -1.474284 6.422716 -1.370094 11.27976 -3.747981 1.558128 22.27209 5.107505 3.568273 -20.01367 5.492593 0.8516387 -20.75381 10.46824 86.44195 23.63207 -10.40479 -0 0 18.86118 -21.28745 4.192173 13.41333 4.254421 -16.74738 -3.150766 -93.1051 22.76723 25.20157 0 0 -6.075703 1.394527 5.335438 12.45656
1916.979 101.7654 1030.3 5.773184 5.663415 118.3927 -0.494068 7.583085 3.222318 -0 58.42638 -0 -5.977402 10.44356 -1.127322 -6.382623 -5.907295 -9.940749 -0 20.37103 -0 -1.95981 -11.24256 18.0691 -3.664067 -1.328001 5.20806 -1.068516 11.89044 -4.800804 1.240938 22.41439 5.176974 3.247082 -20.23469 5.455012 1.059307 -20.51103 10.83047 88.47153 23.15658 -12.94596 -0 0 17.54645 -20.06138 4.07528 12.7128 3.654232 -17.68501 -3.981891 -92.0758 24.23666 23.8968 0 0 -8.238244 0.6241378 5.53542 13.60525
1921.408 103.4268 1027.183 6.244834 5.54271 119.7467 0.1558343 1.926193 3.43754 -0 60.84597 -0 -6.556491 8.643403 -2.397763 -6.30101 -0.05191269 -10.78827 -0 17.99976 -0 -1.982562 -12.5317 17.44406 -3.256299 -1.249918 3.897874 -0.5265042 11.93589 -5.955353 0.9063806 22.78324 5.304919 2.74541 -20.46714 5.634772 1.064677 -20.19899 10.99466 90.09933 23.0677 -15.33128 -0 0 16.09192 -18.49833 4.112218 11.91539 3.177076 -18.55715 -4.549166 -90.99963 26.41452 22.0315 0 0 -10.95061 -0.4257711 6.42886 14.88601
1925.205 104.694 1024.55 6.391621 5.266655 121.0249 0.6961575 -3.074216 3.670453 -0 58.799 -0 -6.960649 4.210887 -3.713813 -6.058595 5.103751 -12.04188 -0 14.9222 -0 -2.147217 -14.02118 17.22623 -2.869196 -1.265979 2.859865 0.07750971 11.41192 -6.909445 0.7278369 23.28072 5.468616 2.23126 -20.67239 6.077872 0.8964538 -19.76677 10.8942 91.15711 23.19062 -17.36471 -0 0 14.73328 -16.77481 4.313278 10.91295 2.976471 -19.23301 -4.783433 -90.13792 29.06975 19.98621 0 0 -13.8452 -1.692689 7.891149 16.32244
1928.51 105.4238 1022.314 6.179407 4.917396 122.1184 1.034598 -7.31812 3.945183 -0 53.81585 -0 -7.148782 -1.060695 -4.878659 -5.833076 9.165453 -13.59043 -0 12.11691 -0 -2.455324 -15.79942 17.33729 -2.634174 -1.314857 2.272482 0.599952 10.51765 -7.49439 0.7828779 23.7476 5.647964 1.849426 -20.89772 6.744866 0.7024214 -19.22819 10.58735 91.62299 23.48824 -18.92813 -0 0 13.63899 -15.05469 4.685435 9.703219 3.095985 -19.6743 -4.696784 -89.68675 31.78795 18.22967 0 0 -16.48176 -2.93931 9.656966 17.75835
1931.479 105.6266 1020.358 5.663177 4.49078 123.0087 1.258991 -10.96475 4.267597 -0 47.75172 -0 -7.143581 -5.724367 -5.741717 -5.682039 12.09127 -15.2117 -0 10.0266 -0 -2.85045 -17.77051 17.62288 -2.554253 -1.326665 2.089726 0.9947575 9.500691 -7.721319 1.035493 24.06437 5.833181 1.651271 -21.2121 7.543964 0.6200308 -18.64444 10.18892 91.60648 23.98683 -20.00932 -0 0 12.85647 -13.44284 5.203891 8.390378 3.468182 -19.9058 -4.357937 -89.69991 34.18381 17.06038 0 0 -18.55628 -3.910586 11.46025 18.95942
1934.245 105.3927 1018.563 4.95184 3.962359 123.7319 1.500886 -14.22777 4.623533 -0 41.8722 -0 -6.980068 -9.145349 -6.26461 -5.58867 14.08441 -16.695 -0 8.674445 -0 -3.278013 -19.75537 17.93004 -2.56131 -1.262159 2.159889 1.283416 8.528988 -7.695404 1.400633 24.19224 6.020539 1.608895 -21.64158 8.38705 0.6915474 -18.06463 9.787992 91.27066 24.66198 -20.67151 -0 0 12.33258 -11.9928 5.813778 7.100321 3.990104 -19.978 -3.851639 -90.0672 36.01565 16.47123 0 0 -19.9865 -4.431142 13.11551 19.71238
1936.922 104.8322 1016.829 4.149647 3.324907 124.3463 1.844917 -17.29112 4.97059 -0 36.70187 -0 -6.712519 -11.2533 -6.48674 -5.514587 15.432 -17.88692 -0 7.94396 -0 -3.711042 -21.59712 18.13472 -2.585718 -1.113474 2.332395 1.506135 7.68003 -7.534032 1.797693 24.14716 6.20893 1.671392 -22.1632 9.206982 0.888535 -17.49863 9.428021 90.77179 25.45293 -21.02003 -0 0 11.95295 -10.73886 6.458025 5.926479 4.580854 -19.95795 -3.25505 -90.56152 37.17286 16.22017 0 0 -20.86785 -4.40498 14.52287 19.85919
1939.617 104.0484 1015.067 3.327788 2.585892 124.9125 2.321796 -20.27617 5.252706 -0 32.29711 -0 -6.420772 -12.18468 -6.4712 -5.424649 16.39294 -18.69032 -0 7.748095 -0 -4.143604 -23.18106 18.14679 -2.580417 -0.8971081 2.497533 1.695867 6.984865 -7.335681 2.165502 23.96215 6.398711 1.801582 -22.72922 9.947491 1.166282 -16.93379 9.125906 90.23932 26.31803 -21.18005 -0 0 11.58599 -9.71329 7.098305 4.926792 5.191274 -19.92417 -2.633161 -90.93703 37.63472 16.00435 0 0 -21.38625 -3.803964 15.63502 19.32061
1942.436 103.133 1013.201 2.530556 1.757564 125.4824 2.934347 -23.2212 5.424869 -0 28.53747 -0 -6.199863 -12.10069 -6.276066 -5.29119 17.15149 -19.05144 -0 8.083775 -0 -4.583752 -24.40892 17.90741 -2.513751 -0.6459655 2.58599 1.871422 6.462365 -7.175511 2.460015 23.66778 6.589852 1.982009 -23.28627 10.55463 1.491753 -16.35837 8.890556 89.77543 27.2501 -21.27613 -0 0 11.11929 -8.94719 7.718323 4.137138 5.790072 -19.95207 -2.041517 -91.01803 37.4377 15.59948 0 0 -21.73954 -2.668138 16.42316 18.11316
1945.483 102.1716 1011.162 1.796215 0.8549873 126.0925 3.680517 -26.06308 5.472083 -0 25.31295 -0 -6.144944 -11.15349 -5.94817 -5.090345 17.81035 -18.94887 -0 9.039952 -0 -5.048578 -25.16313 17.38694 -2.355797 -0.4015489 2.556748 2.038852 6.132928 -7.1074 2.649519 23.28934 6.779591 2.205832 -23.78202 10.97619 1.84767 -15.77369 8.73158 89.45738 28.25999 -21.41237 -0 0 10.48054 -8.467448 8.318041 3.582497 6.3461 -20.09592 -1.530485 -90.73916 36.64849 14.9172 0 0 -22.07766 -1.102054 16.86106 16.34445
